<svg version="1.1" id="Layer_1" xmlns="http://www.w3.org/2000/svg" xmlns:xlink="http://www.w3.org/1999/xlink" x="0px" y="0px"
	 width="100%" viewBox="0 0 512 512" enable-background="new 0 0 512 512" xml:space="preserve">
<path fill="#231F20" opacity="1.000000" stroke="none" 
	d="
M1.000002,294.000000 
	C1.000000,269.645782 1.000000,245.291550 1.295364,220.261505 
	C2.371777,216.915161 3.446527,214.292236 3.888304,211.566727 
	C8.166146,185.174988 17.093271,160.311508 29.369871,136.720062 
	C44.764229,107.137329 65.728050,81.853889 91.153877,60.318794 
	C126.240822,30.600943 166.504532,11.870480 211.783508,3.845489 
	C214.601913,3.345971 217.264771,1.968828 220.000000,1.000000 
	C244.354233,1.000000 268.708466,1.000000 293.738525,1.295366 
	C297.084839,2.371781 299.707733,3.446533 302.433228,3.888307 
	C328.824982,8.166113 353.688446,17.093254 377.279907,29.369850 
	C406.862610,44.764206 432.146088,65.728035 453.681213,91.153839 
	C483.399109,126.240768 502.129517,166.504501 510.154480,211.783493 
	C510.654022,214.601898 512.031189,217.264755 513.000000,220.000000 
	C513.000000,244.354233 513.000000,268.708466 512.704651,293.738495 
	C511.628265,297.084839 510.553467,299.707733 510.111725,302.433228 
	C505.833923,328.824982 496.906738,353.688477 484.630157,377.279907 
	C469.235809,406.862640 448.271973,432.146118 422.846191,453.681244 
	C387.759216,483.399078 347.495453,502.129456 302.216492,510.154480 
	C299.398102,510.654053 296.735229,512.031189 294.000000,513.000000 
	C269.645782,513.000000 245.291550,513.000000 220.261490,512.704590 
	C216.915161,511.628204 214.292252,510.553528 211.566757,510.111755 
	C185.175034,505.833923 160.311539,496.906738 136.720093,484.630127 
	C107.137352,469.235779 81.853928,448.271942 60.318821,422.846130 
	C30.600983,387.759186 11.870476,347.495483 3.845510,302.216492 
	C3.345990,299.398102 1.968837,296.735229 1.000002,294.000000 
M82.232224,236.480942 
	C82.036163,236.324661 81.840103,236.168381 81.644051,236.012100 
	C81.738182,236.358307 81.832314,236.704498 82.106827,237.796204 
	C83.719536,242.128403 85.401054,246.437164 86.889893,250.811523 
	C87.207253,251.743958 87.216927,253.383774 86.659050,253.851288 
	C86.031654,254.377045 84.201912,254.387024 83.597549,253.842239 
	C82.030296,252.429459 80.544846,250.748428 79.569145,248.889755 
	C76.464752,242.975937 73.630371,236.920944 70.632713,230.950073 
	C70.117043,229.922943 69.161209,229.111984 68.674225,228.076294 
	C67.703377,226.011581 66.318306,223.899490 66.176285,221.736588 
	C65.860901,216.933487 63.954914,213.540771 59.668644,211.307297 
	C58.431728,210.662781 56.913246,209.487167 56.611816,208.282761 
	C53.197956,194.642197 48.123936,181.098251 54.373871,166.858444 
	C57.003338,160.867477 56.007629,154.776123 53.423367,148.926880 
	C52.010983,145.730072 50.575157,142.539215 48.999634,139.421631 
	C48.539310,138.510757 47.496075,137.191269 46.838078,137.256149 
	C45.955570,137.343185 44.933178,138.450073 44.415272,139.369461 
	C42.290878,143.140732 40.193569,146.939804 38.338760,150.848465 
	C13.540357,203.106430 7.083789,257.390259 20.692562,313.787506 
	C33.304916,366.055450 60.761757,409.377228 101.703186,443.779724 
	C131.711395,468.995209 166.211060,486.030945 204.732376,494.403656 
	C211.083542,495.784088 212.388016,494.147675 211.122894,487.573303 
	C210.382675,483.726654 209.938690,479.570892 210.580139,475.759247 
	C212.300430,465.537048 215.037262,455.484039 216.705170,445.255371 
	C218.975784,431.330505 217.145721,428.476593 204.639618,421.557007 
	C194.833603,416.131317 188.083115,407.906830 183.344879,397.774353 
	C181.772141,394.411133 179.444275,391.106476 176.681076,388.654846 
	C170.638718,383.293762 169.758545,380.480988 173.403915,373.386139 
	C170.909637,369.223267 172.397202,361.974091 176.387833,357.751129 
	C179.786713,354.154358 184.435654,350.657440 183.588821,345.229553 
	C182.462418,338.009552 184.404541,332.269379 188.603561,326.627563 
	C192.037964,322.013153 191.006760,318.841125 185.893921,316.247589 
	C181.438553,313.987579 176.744659,312.145264 172.484283,309.574615 
	C170.215027,308.205414 167.765625,305.996155 166.919083,303.623260 
	C164.475082,296.772675 159.667236,293.991486 152.906570,292.518768 
	C148.929733,291.652435 145.391464,288.809204 141.629684,286.906982 
	C138.975037,285.564636 136.373947,284.007538 133.569656,283.100739 
	C130.793243,282.203003 127.578140,282.506805 124.933144,281.389465 
	C119.123711,278.935364 113.656738,275.672363 107.853027,273.202301 
	C102.819550,271.060059 99.536766,267.782104 98.623901,262.357361 
	C96.798782,251.511627 88.051743,245.086685 82.232224,236.480942 
M285.148865,124.831863 
	C283.672241,125.067711 281.908539,124.865166 280.766937,125.612648 
	C274.700409,129.584747 268.250061,128.981277 261.481598,128.341232 
	C257.881439,128.000809 254.088837,129.695343 250.383102,130.471344 
	C258.030975,132.662689 257.994629,132.659729 257.418854,139.745514 
	C257.343018,140.678818 257.727631,141.721954 258.130432,142.609131 
	C259.842743,146.380478 263.047729,147.683609 266.957275,148.144745 
	C268.170044,148.287796 269.245667,149.594055 270.384064,150.367767 
	C269.375977,151.283951 268.497406,152.436768 267.335876,153.072693 
	C263.615479,155.109543 259.900940,157.252243 255.949341,158.723495 
	C254.432800,159.288132 251.100327,158.694229 250.641403,157.691635 
	C249.195389,154.532669 246.954895,154.741074 244.437149,155.095551 
	C239.422653,155.801544 235.465302,158.129974 232.368103,162.289795 
	C229.917877,165.580643 226.640060,168.251968 224.158951,171.523865 
	C219.937744,177.090515 213.060944,180.886795 211.570053,188.224274 
	C209.515869,198.334091 204.310867,205.836334 195.636993,211.308594 
	C189.856888,214.955246 189.294815,217.940155 191.106308,224.482498 
	C192.425125,229.245483 193.255905,234.181580 193.802094,239.096313 
	C193.956436,240.485275 192.490280,243.184143 191.507950,243.313583 
	C189.900574,243.525375 187.403671,242.599792 186.491943,241.303177 
	C184.621490,238.643036 182.978653,235.545853 182.284592,232.398682 
	C181.168213,227.336594 179.320023,224.071915 173.389603,224.747116 
	C171.887024,224.918182 170.265839,223.537949 168.659012,223.420731 
	C166.151657,223.237778 163.548721,223.207031 161.096069,223.680542 
	C156.438339,224.579697 151.817184,225.739059 147.257858,227.056839 
	C142.870010,228.325073 137.747864,228.934708 134.479156,231.665833 
	C131.182327,234.420441 129.581284,239.336639 127.566185,243.466278 
	C123.086151,252.647430 124.945290,261.234406 132.634369,268.027374 
	C138.847656,273.516541 147.853210,271.662720 150.786942,264.022095 
	C152.372330,259.893097 155.488708,258.427643 159.267212,258.272522 
	C161.544739,258.179016 163.871262,259.279022 166.175781,259.842682 
	C165.550049,261.781738 164.973022,263.738495 164.277634,265.652252 
	C163.939240,266.583527 163.338989,267.415924 162.926590,268.324585 
	C158.633270,277.784271 160.786301,281.486572 170.888351,282.042297 
	C171.387436,282.069763 171.889481,282.074707 172.384842,282.134277 
	C178.552155,282.875824 181.267365,286.061646 180.864487,292.220337 
	C180.734497,294.207764 180.214478,296.172760 180.125595,298.159332 
	C179.768082,306.150543 184.625137,310.478149 192.413849,309.265991 
	C193.723602,309.062195 195.070938,309.036774 196.400909,309.036804 
	C202.678085,309.036896 205.112137,311.211243 206.001114,317.384186 
	C206.317154,319.578644 206.856247,321.740936 207.410843,324.502075 
	C212.317047,317.415283 214.330521,317.109497 221.146469,319.562897 
	C225.926926,321.283600 231.180542,322.999786 236.110214,322.721619 
	C246.186157,322.153107 251.736511,330.746368 260.173492,333.155243 
	C260.309845,333.194183 260.428741,333.374969 260.509552,333.516022 
	C264.245972,340.039948 270.185974,341.312622 277.163330,341.157074 
	C283.279419,341.020752 288.477356,343.939148 290.694397,349.717773 
	C293.825500,357.878876 297.811859,364.236511 307.823273,363.622528 
	C308.431885,363.585175 309.079773,364.029938 309.695099,364.284973 
	C316.441315,367.080933 323.138794,370.001801 329.942383,372.650177 
	C336.233124,375.098846 342.708069,377.086304 348.933350,379.681335 
	C350.258789,380.233856 351.599426,382.504852 351.656769,384.032013 
	C351.872070,389.765167 351.170135,395.135895 345.976746,399.204041 
	C342.970245,401.559143 339.262543,404.955444 338.809479,408.283295 
	C337.231842,419.871216 330.785828,428.947449 325.024384,438.395721 
	C323.812927,440.382446 321.058411,441.845520 318.707855,442.631317 
	C314.151947,444.154297 309.275391,444.726746 304.736481,446.288239 
	C302.385406,447.097076 299.199249,448.795410 298.607391,450.759857 
	C297.026489,456.006836 293.264008,459.145447 289.992950,463.051941 
	C285.002014,469.012360 279.120819,473.214783 272.213928,476.395813 
	C270.318268,477.268890 268.354004,478.502960 267.072205,480.095428 
	C264.190521,483.675507 260.970581,485.568817 256.237274,484.448944 
	C255.067673,484.172180 253.494675,484.505615 252.420502,485.112915 
	C248.159531,487.521881 243.910980,489.989990 239.899353,492.783081 
	C238.455612,493.788330 237.692596,495.771240 236.618958,497.308014 
	C238.434265,498.188812 240.272095,499.874634 242.061401,499.824615 
	C258.183044,499.373932 274.409088,499.594391 290.387817,497.745575 
	C321.539398,494.141205 350.687012,483.570892 377.735504,467.910217 
	C411.543671,448.335907 439.367218,422.110779 460.702057,389.248169 
	C463.818176,384.448273 466.633362,379.721252 467.368347,373.441956 
	C468.416138,364.490112 470.339874,355.214294 474.119202,347.117737 
	C478.734680,337.229858 478.677002,328.136353 475.670135,318.144867 
	C474.327667,313.683929 473.959442,308.588959 474.554291,303.962402 
	C475.547485,296.237732 471.968231,292.084778 464.149170,293.310944 
	C455.629333,294.646973 447.132507,296.179077 438.573669,297.182434 
	C436.434448,297.433197 433.651001,296.556183 431.923065,295.217377 
	C422.777557,288.131378 414.736267,279.763062 409.316559,269.590515 
	C407.081451,265.395355 406.052643,258.912598 407.684479,254.719101 
	C409.717957,249.493469 410.004059,245.713181 407.707275,240.723495 
	C404.633911,234.046783 404.797363,227.175262 409.608002,220.953003 
	C415.296570,213.595230 420.904968,206.175217 426.501038,198.746704 
	C427.081696,197.975906 427.741272,196.940292 427.688293,196.068604 
	C427.319061,189.991653 430.514648,185.830383 434.455200,181.700134 
	C437.428284,178.583923 436.160248,174.998245 432.169128,173.394272 
	C428.199646,171.798965 424.254395,165.626251 424.345551,161.392838 
	C424.440582,156.981491 424.419128,152.566513 424.378906,148.153748 
	C424.348206,144.785004 425.832825,142.985794 429.269287,143.691956 
	C432.152710,144.284424 434.916382,145.455429 437.797882,146.062637 
	C439.298004,146.378754 441.455536,146.613739 442.362579,145.809723 
	C443.189514,145.076706 443.379700,142.477875 442.711029,141.425446 
	C440.878754,138.541733 438.461273,136.026840 436.246033,133.390671 
	C435.077057,131.999634 433.846558,130.660309 432.643829,129.297623 
	C434.341583,128.745911 436.036682,128.185852 437.737854,127.644913 
	C439.407166,127.114090 441.082672,126.602676 443.470337,125.860565 
	C442.142609,124.698074 441.834991,124.263496 441.420319,124.099319 
	C440.496155,123.733406 439.534424,123.422310 438.560181,123.229225 
	C428.815430,121.297920 428.898102,121.310249 429.416290,111.153679 
	C429.494934,109.612663 428.373383,108.010406 427.806946,106.436478 
	C427.257965,106.397888 426.708984,106.359291 426.160004,106.320702 
	C426.584839,112.063019 424.142700,115.058365 418.776794,114.473808 
	C413.637238,113.913910 414.431732,108.848549 413.675537,105.805016 
	C412.408875,100.707039 417.702698,100.884308 420.770630,99.525864 
	C420.866577,98.712601 420.841217,98.022675 421.040985,97.405640 
	C421.620972,95.614189 422.291260,93.851959 422.926086,92.078255 
	C424.450195,93.048080 426.446838,93.680222 427.420868,95.043167 
	C433.265717,103.221588 438.804138,111.619202 444.667328,119.783905 
	C445.298248,120.662506 447.913116,121.250244 448.645599,120.697624 
	C450.441223,119.343002 451.674347,117.242783 453.491211,115.001740 
	C453.274445,114.606224 452.874176,113.523216 452.184998,112.674919 
	C447.257446,106.609558 442.408875,100.472008 437.278809,94.580666 
	C418.356659,72.850632 395.725952,55.807289 370.417328,42.226593 
	C365.020050,39.330399 358.889862,40.476173 354.961823,45.280922 
	C352.003082,48.900043 348.501434,50.835178 343.874908,51.105331 
	C340.967194,51.275120 338.764191,52.431446 338.642761,55.905293 
	C338.476471,60.662285 338.444275,65.457077 337.757568,70.148270 
	C337.432159,72.371315 336.191528,75.517776 334.519104,76.214661 
	C332.495300,77.057968 328.872253,76.596016 327.191010,75.197044 
	C323.779388,72.358162 320.316925,71.751717 316.136353,71.901840 
	C305.899597,72.269447 297.547607,68.811714 292.456635,59.278072 
	C291.527802,57.538685 290.420044,55.568165 288.846802,54.557014 
	C282.542297,50.504997 280.565094,44.948929 282.351746,39.048752 
	C280.245850,36.646606 277.704254,35.029022 277.690247,33.389847 
	C277.674622,31.559687 279.953827,29.709909 281.284637,27.796219 
	C278.192078,25.104240 275.133392,21.714748 271.417603,19.364004 
	C264.443512,14.951938 256.251312,13.605564 248.336868,14.212472 
	C233.613052,15.341549 218.744919,16.573746 204.355743,19.694458 
	C167.137589,27.766306 133.819931,44.438599 104.095917,68.255585 
	C103.162018,69.003891 102.335587,69.886322 101.459061,70.706230 
	C101.669060,71.121536 101.879059,71.536842 102.089058,71.952148 
	C107.559029,70.211868 112.941910,68.090645 118.518311,66.815948 
	C128.136276,64.617393 137.814545,62.418644 147.591095,61.304310 
	C151.656570,60.840923 154.971146,60.599800 157.445312,57.114063 
	C158.499084,55.629467 159.848373,54.356018 161.047760,52.973076 
	C163.186005,50.507576 175.550888,49.306229 178.022446,51.344444 
	C178.273163,51.551197 178.478302,51.834259 178.646912,52.116386 
	C180.866638,55.830353 182.395660,54.651119 184.332489,51.664318 
	C186.675156,48.051605 192.043701,47.003086 195.357666,49.543926 
	C196.886963,50.716454 198.410690,52.930187 198.442612,54.698795 
	C198.468735,56.146545 196.562973,58.320892 195.013290,58.960190 
	C191.865036,60.258930 188.317047,60.551250 185.055283,61.626781 
	C183.208298,62.235794 180.526062,63.231926 180.074570,64.645874 
	C178.151077,70.669853 173.415985,72.838829 168.134277,73.994766 
	C162.285812,75.274742 158.551987,78.416504 155.746017,83.682663 
	C151.471191,91.705490 153.709000,99.203094 162.529572,101.778282 
	C167.524323,103.236519 173.017838,103.771454 178.228806,103.520370 
	C186.094681,103.141380 191.466309,106.679420 192.956879,114.345741 
	C193.459854,116.932625 194.063309,119.607124 195.237625,121.929733 
	C196.775406,124.971260 199.286575,124.887573 200.785522,121.871429 
	C201.490341,120.453217 202.098679,118.515831 201.705688,117.104782 
	C199.996033,110.966248 202.273987,107.024734 207.447586,103.746025 
	C211.118347,101.419731 211.881622,98.339653 208.106476,94.731865 
	C206.751175,93.436646 206.371201,90.558815 206.459534,88.441383 
	C206.607162,84.902786 207.699860,81.412697 208.000427,77.868744 
	C208.279999,74.572502 209.534958,72.978447 213.013748,73.299728 
	C216.984940,73.666489 220.983109,73.733467 224.958481,74.064011 
	C231.132294,74.577370 236.396072,77.302017 239.393051,82.615692 
	C243.602722,90.079506 247.113220,91.114975 253.431976,85.471008 
	C255.885345,83.279617 258.541107,82.413239 260.856201,85.084839 
	C263.220612,87.813362 265.385132,90.868118 266.925964,94.117332 
	C268.728333,97.918076 271.372681,99.255829 275.298615,98.799675 
	C277.443146,98.550499 279.599396,98.081909 281.736420,98.150101 
	C287.699585,98.340378 292.030243,102.423477 292.842529,108.333763 
	C294.256134,118.619225 292.705383,122.295990 285.148865,124.831863 
M450.095428,172.634644 
	C447.166748,173.589920 444.238068,174.545197 440.550812,175.747910 
	C444.524506,179.105042 447.608154,179.505371 451.460999,177.918045 
	C462.492462,173.373215 469.960480,176.613098 476.103180,186.698685 
	C478.935089,191.348328 483.530640,195.021255 487.696472,198.720444 
	C489.821594,200.607559 492.812378,198.803696 492.125885,196.037613 
	C490.392548,189.053223 488.104736,182.206421 486.039062,175.304504 
	C485.592163,175.816071 485.145294,176.327621 484.698395,176.839188 
	C483.143524,176.397919 480.899811,176.461517 480.146088,175.433075 
	C475.404388,168.963425 470.993958,162.250977 466.400452,155.510788 
	C461.950897,156.237442 456.787750,156.599762 454.241241,161.390457 
	C452.503876,164.658905 451.782013,168.467148 450.095428,172.634644 
M199.149338,316.278900 
	C198.164352,315.571930 197.179352,314.864990 196.194382,314.158020 
	C195.364517,315.603943 194.534653,317.049896 193.704803,318.495819 
	C194.133865,318.806702 194.562943,319.117554 194.992004,319.428436 
	C196.297363,318.555450 197.602707,317.682495 199.149338,316.278900 
M79.440765,233.072006 
	C79.440765,233.072006 79.444939,232.974960 79.440765,233.072006 
z"/>
<path fill="#000000" opacity="1.000000" stroke="none" 
	d="
M513.000000,219.531342 
	C512.031189,217.264755 510.654022,214.601898 510.154480,211.783493 
	C502.129517,166.504501 483.399109,126.240768 453.681213,91.153839 
	C432.146088,65.728035 406.862610,44.764206 377.279907,29.369850 
	C353.688446,17.093254 328.824982,8.166113 302.433228,3.888307 
	C299.707733,3.446533 297.084839,2.371781 294.207153,1.295366 
	C366.927032,1.000000 439.854034,1.000000 513.000000,1.000000 
	C513.000000,73.687416 513.000000,146.375046 513.000000,219.531342 
z"/>
<path fill="#000000" opacity="1.000000" stroke="none" 
	d="
M1.000002,294.468658 
	C1.968837,296.735229 3.345990,299.398102 3.845510,302.216492 
	C11.870476,347.495483 30.600983,387.759186 60.318821,422.846130 
	C81.853928,448.271942 107.137352,469.235779 136.720093,484.630127 
	C160.311539,496.906738 185.175034,505.833923 211.566757,510.111755 
	C214.292252,510.553528 216.915161,511.628204 219.792831,512.704590 
	C147.072968,513.000000 74.145935,513.000000 1.000000,513.000000 
	C1.000000,440.312592 1.000000,367.624939 1.000002,294.468658 
z"/>
<path fill="#000000" opacity="1.000000" stroke="none" 
	d="
M294.468658,513.000000 
	C296.735229,512.031189 299.398102,510.654053 302.216492,510.154480 
	C347.495453,502.129456 387.759216,483.399078 422.846191,453.681244 
	C448.271973,432.146118 469.235809,406.862640 484.630157,377.279907 
	C496.906738,353.688477 505.833923,328.824982 510.111725,302.433228 
	C510.553467,299.707733 511.628265,297.084839 512.704651,294.207153 
	C513.000000,366.927032 513.000000,439.854034 513.000000,513.000000 
	C440.312592,513.000000 367.624939,513.000000 294.468658,513.000000 
z"/>
<path fill="#000000" opacity="1.000000" stroke="none" 
	d="
M219.531342,1.000000 
	C217.264771,1.968828 214.601913,3.345971 211.783508,3.845489 
	C166.504532,11.870480 126.240822,30.600943 91.153877,60.318794 
	C65.728050,81.853889 44.764229,107.137329 29.369871,136.720062 
	C17.093271,160.311508 8.166146,185.174988 3.888304,211.566727 
	C3.446527,214.292236 2.371777,216.915161 1.295364,219.792847 
	C1.000000,147.072968 1.000000,74.145920 1.000000,1.000000 
	C73.687416,1.000000 146.375046,1.000000 219.531342,1.000000 
z"/>
<path fill="#000000" opacity="1.000000" stroke="none" 
	d="
M285.545349,124.763405 
	C292.705383,122.295990 294.256134,118.619225 292.842529,108.333763 
	C292.030243,102.423477 287.699585,98.340378 281.736420,98.150101 
	C279.599396,98.081909 277.443146,98.550499 275.298615,98.799675 
	C271.372681,99.255829 268.728333,97.918076 266.925964,94.117332 
	C265.385132,90.868118 263.220612,87.813362 260.856201,85.084839 
	C258.541107,82.413239 255.885345,83.279617 253.431976,85.471008 
	C247.113220,91.114975 243.602722,90.079506 239.393051,82.615692 
	C236.396072,77.302017 231.132294,74.577370 224.958481,74.064011 
	C220.983109,73.733467 216.984940,73.666489 213.013748,73.299728 
	C209.534958,72.978447 208.279999,74.572502 208.000427,77.868744 
	C207.699860,81.412697 206.607162,84.902786 206.459534,88.441383 
	C206.371201,90.558815 206.751175,93.436646 208.106476,94.731865 
	C211.881622,98.339653 211.118347,101.419731 207.447586,103.746025 
	C202.273987,107.024734 199.996033,110.966248 201.705688,117.104782 
	C202.098679,118.515831 201.490341,120.453217 200.785522,121.871429 
	C199.286575,124.887573 196.775406,124.971260 195.237625,121.929733 
	C194.063309,119.607124 193.459854,116.932625 192.956879,114.345741 
	C191.466309,106.679420 186.094681,103.141380 178.228806,103.520370 
	C173.017838,103.771454 167.524323,103.236519 162.529572,101.778282 
	C153.709000,99.203094 151.471191,91.705490 155.746017,83.682663 
	C158.551987,78.416504 162.285812,75.274742 168.134277,73.994766 
	C173.415985,72.838829 178.151077,70.669853 180.074570,64.645874 
	C180.526062,63.231926 183.208298,62.235794 185.055283,61.626781 
	C188.317047,60.551250 191.865036,60.258930 195.013290,58.960190 
	C196.562973,58.320892 198.468735,56.146545 198.442612,54.698795 
	C198.410690,52.930187 196.886963,50.716454 195.357666,49.543926 
	C192.043701,47.003086 186.675156,48.051605 184.332489,51.664318 
	C182.395660,54.651119 180.866638,55.830353 178.646912,52.116386 
	C178.478302,51.834259 178.273163,51.551197 178.022446,51.344444 
	C175.550888,49.306229 163.186005,50.507576 161.047760,52.973076 
	C159.848373,54.356018 158.499084,55.629467 157.445312,57.114063 
	C154.971146,60.599800 151.656570,60.840923 147.591095,61.304310 
	C137.814545,62.418644 128.136276,64.617393 118.518311,66.815948 
	C112.941910,68.090645 107.559029,70.211868 102.089058,71.952148 
	C101.879059,71.536842 101.669060,71.121536 101.459061,70.706230 
	C102.335587,69.886322 103.162018,69.003891 104.095917,68.255585 
	C133.819931,44.438599 167.137589,27.766306 204.355743,19.694458 
	C218.744919,16.573746 233.613052,15.341549 248.336868,14.212472 
	C256.251312,13.605564 264.443512,14.951938 271.417603,19.364004 
	C275.133392,21.714748 278.192078,25.104240 281.284637,27.796219 
	C279.953827,29.709909 277.674622,31.559687 277.690247,33.389847 
	C277.704254,35.029022 280.245850,36.646606 282.351746,39.048752 
	C280.565094,44.948929 282.542297,50.504997 288.846802,54.557014 
	C290.420044,55.568165 291.527802,57.538685 292.456635,59.278072 
	C297.547607,68.811714 305.899597,72.269447 316.136353,71.901840 
	C320.316925,71.751717 323.779388,72.358162 327.191010,75.197044 
	C328.872253,76.596016 332.495300,77.057968 334.519104,76.214661 
	C336.191528,75.517776 337.432159,72.371315 337.757568,70.148270 
	C338.444275,65.457077 338.476471,60.662285 338.642761,55.905293 
	C338.764191,52.431446 340.967194,51.275120 343.874908,51.105331 
	C348.501434,50.835178 352.003082,48.900043 354.961823,45.280922 
	C358.889862,40.476173 365.020050,39.330399 370.417328,42.226593 
	C395.725952,55.807289 418.356659,72.850632 437.278809,94.580666 
	C442.408875,100.472008 447.257446,106.609558 452.184998,112.674919 
	C452.874176,113.523216 453.274445,114.606224 453.491211,115.001740 
	C451.674347,117.242783 450.441223,119.343002 448.645599,120.697624 
	C447.913116,121.250244 445.298248,120.662506 444.667328,119.783905 
	C438.804138,111.619202 433.265717,103.221588 427.420868,95.043167 
	C426.446838,93.680222 424.450195,93.048080 422.926086,92.078262 
	C422.291260,93.851959 421.620972,95.614189 421.040985,97.405640 
	C420.841217,98.022675 420.866577,98.712601 420.770630,99.525864 
	C417.702698,100.884308 412.408875,100.707039 413.675537,105.805016 
	C414.431732,108.848549 413.637238,113.913910 418.776794,114.473808 
	C424.142700,115.058365 426.584839,112.063019 426.160004,106.320702 
	C426.708984,106.359291 427.257965,106.397888 427.806946,106.436478 
	C428.373383,108.010406 429.494934,109.612663 429.416290,111.153679 
	C428.898102,121.310249 428.815430,121.297920 438.560181,123.229225 
	C439.534424,123.422310 440.496155,123.733406 441.420319,124.099319 
	C441.834991,124.263496 442.142609,124.698074 443.470337,125.860565 
	C441.082672,126.602676 439.407166,127.114090 437.737854,127.644913 
	C436.036682,128.185852 434.341583,128.745911 432.643829,129.297638 
	C433.846558,130.660309 435.077057,131.999634 436.246033,133.390671 
	C438.461273,136.026840 440.878754,138.541733 442.711029,141.425446 
	C443.379700,142.477875 443.189514,145.076706 442.362579,145.809723 
	C441.455536,146.613739 439.298004,146.378754 437.797882,146.062637 
	C434.916382,145.455429 432.152710,144.284424 429.269287,143.691956 
	C425.832825,142.985794 424.348206,144.785004 424.378906,148.153748 
	C424.419128,152.566513 424.440582,156.981491 424.345551,161.392838 
	C424.254395,165.626251 428.199646,171.798965 432.169128,173.394272 
	C436.160248,174.998245 437.428284,178.583923 434.455200,181.700134 
	C430.514648,185.830383 427.319061,189.991653 427.688293,196.068604 
	C427.741272,196.940292 427.081696,197.975906 426.501038,198.746704 
	C420.904968,206.175217 415.296570,213.595230 409.608002,220.953003 
	C404.797363,227.175262 404.633911,234.046783 407.707275,240.723495 
	C410.004059,245.713181 409.717957,249.493469 407.684479,254.719101 
	C406.052643,258.912598 407.081451,265.395355 409.316559,269.590515 
	C414.736267,279.763062 422.777557,288.131378 431.923065,295.217377 
	C433.651001,296.556183 436.434448,297.433197 438.573669,297.182434 
	C447.132507,296.179077 455.629333,294.646973 464.149170,293.310944 
	C471.968231,292.084778 475.547485,296.237732 474.554291,303.962402 
	C473.959442,308.588959 474.327667,313.683929 475.670135,318.144867 
	C478.677002,328.136353 478.734680,337.229858 474.119202,347.117737 
	C470.339874,355.214294 468.416138,364.490112 467.368347,373.441956 
	C466.633362,379.721252 463.818176,384.448273 460.702057,389.248169 
	C439.367218,422.110779 411.543671,448.335907 377.735504,467.910217 
	C350.687012,483.570892 321.539398,494.141205 290.387817,497.745575 
	C274.409088,499.594391 258.183044,499.373932 242.061401,499.824615 
	C240.272095,499.874634 238.434265,498.188812 236.618942,497.307983 
	C237.692596,495.771240 238.455612,493.788330 239.899353,492.783081 
	C243.910980,489.989990 248.159531,487.521881 252.420502,485.112915 
	C253.494675,484.505615 255.067673,484.172180 256.237274,484.448944 
	C260.970581,485.568817 264.190521,483.675507 267.072205,480.095428 
	C268.354004,478.502960 270.318268,477.268890 272.213928,476.395813 
	C279.120819,473.214783 285.002014,469.012360 289.992950,463.051941 
	C293.264008,459.145447 297.026489,456.006836 298.607391,450.759857 
	C299.199249,448.795410 302.385406,447.097076 304.736481,446.288239 
	C309.275391,444.726746 314.151947,444.154297 318.707855,442.631317 
	C321.058411,441.845520 323.812927,440.382446 325.024384,438.395721 
	C330.785828,428.947449 337.231842,419.871216 338.809479,408.283295 
	C339.262543,404.955444 342.970245,401.559143 345.976746,399.204041 
	C351.170135,395.135895 351.872070,389.765167 351.656769,384.032013 
	C351.599426,382.504852 350.258789,380.233856 348.933350,379.681335 
	C342.708069,377.086304 336.233124,375.098846 329.942383,372.650177 
	C323.138794,370.001801 316.441315,367.080933 309.695099,364.284973 
	C309.079773,364.029938 308.431885,363.585175 307.823273,363.622528 
	C297.811859,364.236511 293.825500,357.878876 290.694397,349.717773 
	C288.477356,343.939148 283.279419,341.020752 277.163330,341.157074 
	C270.185974,341.312622 264.245972,340.039948 260.509552,333.516022 
	C260.428741,333.374969 260.309845,333.194183 260.173492,333.155243 
	C251.736511,330.746368 246.186157,322.153107 236.110214,322.721619 
	C231.180542,322.999786 225.926926,321.283600 221.146469,319.562897 
	C214.330521,317.109497 212.317047,317.415283 207.410843,324.502075 
	C206.856247,321.740936 206.317154,319.578644 206.001114,317.384186 
	C205.112137,311.211243 202.678085,309.036896 196.400909,309.036804 
	C195.070938,309.036774 193.723602,309.062195 192.413849,309.265991 
	C184.625137,310.478149 179.768082,306.150543 180.125595,298.159332 
	C180.214478,296.172760 180.734497,294.207764 180.864487,292.220337 
	C181.267365,286.061646 178.552155,282.875824 172.384842,282.134277 
	C171.889481,282.074707 171.387436,282.069763 170.888351,282.042297 
	C160.786301,281.486572 158.633270,277.784271 162.926590,268.324585 
	C163.338989,267.415924 163.939240,266.583527 164.277634,265.652252 
	C164.973022,263.738495 165.550049,261.781738 166.175781,259.842682 
	C163.871262,259.279022 161.544739,258.179016 159.267212,258.272522 
	C155.488708,258.427643 152.372330,259.893097 150.786942,264.022095 
	C147.853210,271.662720 138.847656,273.516541 132.634369,268.027374 
	C124.945290,261.234406 123.086151,252.647430 127.566185,243.466278 
	C129.581284,239.336639 131.182327,234.420441 134.479156,231.665833 
	C137.747864,228.934708 142.870010,228.325073 147.257858,227.056839 
	C151.817184,225.739059 156.438339,224.579697 161.096069,223.680542 
	C163.548721,223.207031 166.151657,223.237778 168.659012,223.420731 
	C170.265839,223.537949 171.887024,224.918182 173.389603,224.747116 
	C179.320023,224.071915 181.168213,227.336594 182.284592,232.398682 
	C182.978653,235.545853 184.621490,238.643036 186.491943,241.303177 
	C187.403671,242.599792 189.900574,243.525375 191.507950,243.313583 
	C192.490280,243.184143 193.956436,240.485275 193.802094,239.096313 
	C193.255905,234.181580 192.425125,229.245483 191.106308,224.482498 
	C189.294815,217.940155 189.856888,214.955246 195.636993,211.308594 
	C204.310867,205.836334 209.515869,198.334091 211.570053,188.224274 
	C213.060944,180.886795 219.937744,177.090515 224.158951,171.523865 
	C226.640060,168.251968 229.917877,165.580643 232.368103,162.289795 
	C235.465302,158.129974 239.422653,155.801544 244.437149,155.095551 
	C246.954895,154.741074 249.195389,154.532669 250.641403,157.691635 
	C251.100327,158.694229 254.432800,159.288132 255.949341,158.723495 
	C259.900940,157.252243 263.615479,155.109543 267.335876,153.072693 
	C268.497406,152.436768 269.375977,151.283951 270.384064,150.367767 
	C269.245667,149.594055 268.170044,148.287796 266.957275,148.144745 
	C263.047729,147.683609 259.842743,146.380478 258.130432,142.609131 
	C257.727631,141.721954 257.343018,140.678818 257.418854,139.745514 
	C257.994629,132.659729 258.030975,132.662689 250.383102,130.471344 
	C254.088837,129.695343 257.881439,128.000809 261.481598,128.341232 
	C268.250061,128.981277 274.700409,129.584747 280.766937,125.612648 
	C281.908539,124.865166 283.672241,125.067711 285.545349,124.763405 
M253.789902,71.865028 
	C255.405960,70.706123 257.022003,69.547218 258.638062,68.388321 
	C257.342010,66.600266 256.314423,64.495308 254.677979,63.109077 
	C252.871323,61.578644 250.506393,60.707237 248.384628,59.548786 
	C248.594666,59.088482 248.804703,58.628181 249.014740,58.167881 
	C249.780411,58.127537 250.662766,57.820324 251.290756,58.094887 
	C253.534317,59.075787 255.593781,60.573105 257.904816,61.281540 
	C261.212463,62.295464 267.183990,59.406116 267.445251,56.750786 
	C267.893860,52.191776 263.869720,52.885216 261.286987,51.946007 
	C256.243805,50.112068 251.196518,48.289440 245.712646,46.303398 
	C248.746628,41.788914 247.091599,40.281311 243.115540,39.715729 
	C240.518372,39.346287 238.022766,38.311577 235.449585,37.712711 
	C231.922897,36.891930 227.248901,37.350052 225.054962,35.215958 
	C220.533615,30.817945 216.671158,32.953636 212.278046,34.296864 
	C208.817749,35.354874 205.283752,36.568264 202.412857,32.657970 
	C201.752823,31.758957 199.555954,31.162828 198.467789,31.551447 
	C194.492706,32.971085 190.687317,34.865910 186.865082,36.560837 
	C186.390106,36.063492 184.807877,33.626286 184.154678,33.853996 
	C180.808960,35.020329 177.140930,36.282978 174.661301,38.642452 
	C171.854355,41.313366 174.275055,46.725319 178.314362,46.695950 
	C185.913254,46.640694 193.997574,47.165062 200.970505,44.784378 
	C208.818634,42.104881 219.533142,46.272072 227.311783,52.396713 
	C223.548981,57.040318 220.356812,62.546318 212.908676,61.252350 
	C212.324356,61.150837 211.471481,61.410362 211.047333,61.818180 
	C210.159790,62.671516 209.475159,63.735870 208.707199,64.713562 
	C209.696457,65.432014 210.656815,66.702759 211.680847,66.756325 
	C213.958847,66.875488 216.415680,66.801765 218.533798,66.053833 
	C222.479019,64.660706 225.595337,65.908142 228.847198,67.939728 
	C231.715210,69.731522 234.729736,71.379242 237.863297,72.630402 
	C241.078583,73.914185 244.621277,74.381081 247.829880,75.677635 
	C251.542953,77.178047 252.813049,75.907928 252.891525,72.110329 
	C252.891525,72.110329 253.051208,71.926125 253.789902,71.865028 
M201.733719,264.837524 
	C204.765396,270.339111 209.519760,265.924438 213.379471,266.733643 
	C214.191299,266.903870 215.347778,265.430481 216.345428,264.714417 
	C215.529846,263.835205 214.850082,262.737030 213.867264,262.127441 
	C212.344376,261.182861 210.644669,260.496033 208.967621,259.832031 
	C201.785904,256.988617 194.746033,253.563431 187.318375,251.665878 
	C183.968292,250.810028 179.784775,252.878204 176.092377,253.993713 
	C175.376770,254.209885 175.185043,256.160156 174.751663,257.310547 
	C175.902771,257.613800 177.278915,258.485504 178.170303,258.132660 
	C187.453033,254.458008 194.296570,259.713196 201.733719,264.837524 
M231.495300,274.727051 
	C233.124603,274.540558 234.767944,274.432373 236.378845,274.143280 
	C237.723434,273.901978 239.029968,273.448761 240.353363,273.089386 
	C239.700333,271.682312 239.357895,269.372223 238.341156,269.022491 
	C233.620193,267.398590 228.767517,265.998657 223.852951,265.150055 
	C220.303146,264.537109 218.485825,266.352661 220.108002,269.533020 
	C218.421799,270.421417 217.068756,271.082336 215.822067,271.904541 
	C215.736343,271.961060 216.282822,273.396698 216.814301,273.890900 
	C218.501984,275.460144 228.642914,276.262024 231.495300,274.727051 
M245.307114,272.688995 
	C246.819580,273.315094 248.312775,274.005310 249.872513,274.474213 
	C250.039780,274.524475 250.594467,273.286041 250.969437,272.645416 
	C249.408386,272.273376 247.852631,271.874542 246.279678,271.562500 
	C246.078583,271.522614 245.787827,271.934692 245.307114,272.688995 
z"/>
<path fill="#000000" opacity="1.000000" stroke="none" 
	d="
M82.339874,236.723953 
	C88.051743,245.086685 96.798782,251.511627 98.623901,262.357361 
	C99.536766,267.782104 102.819550,271.060059 107.853027,273.202301 
	C113.656738,275.672363 119.123711,278.935364 124.933144,281.389465 
	C127.578140,282.506805 130.793243,282.203003 133.569656,283.100739 
	C136.373947,284.007538 138.975037,285.564636 141.629684,286.906982 
	C145.391464,288.809204 148.929733,291.652435 152.906570,292.518768 
	C159.667236,293.991486 164.475082,296.772675 166.919083,303.623260 
	C167.765625,305.996155 170.215027,308.205414 172.484283,309.574615 
	C176.744659,312.145264 181.438553,313.987579 185.893921,316.247589 
	C191.006760,318.841125 192.037964,322.013153 188.603561,326.627563 
	C184.404541,332.269379 182.462418,338.009552 183.588821,345.229553 
	C184.435654,350.657440 179.786713,354.154358 176.387833,357.751129 
	C172.397202,361.974091 170.909637,369.223267 173.403915,373.386139 
	C169.758545,380.480988 170.638718,383.293762 176.681076,388.654846 
	C179.444275,391.106476 181.772141,394.411133 183.344879,397.774353 
	C188.083115,407.906830 194.833603,416.131317 204.639618,421.557007 
	C217.145721,428.476593 218.975784,431.330505 216.705170,445.255371 
	C215.037262,455.484039 212.300430,465.537048 210.580139,475.759247 
	C209.938690,479.570892 210.382675,483.726654 211.122894,487.573303 
	C212.388016,494.147675 211.083542,495.784088 204.732376,494.403656 
	C166.211060,486.030945 131.711395,468.995209 101.703186,443.779724 
	C60.761757,409.377228 33.304916,366.055450 20.692562,313.787506 
	C7.083789,257.390259 13.540357,203.106430 38.338760,150.848465 
	C40.193569,146.939804 42.290878,143.140732 44.415272,139.369461 
	C44.933178,138.450073 45.955570,137.343185 46.838078,137.256149 
	C47.496075,137.191269 48.539310,138.510757 48.999634,139.421631 
	C50.575157,142.539215 52.010983,145.730072 53.423367,148.926880 
	C56.007629,154.776123 57.003338,160.867477 54.373871,166.858444 
	C48.123936,181.098251 53.197956,194.642197 56.611816,208.282761 
	C56.913246,209.487167 58.431728,210.662781 59.668644,211.307297 
	C63.954914,213.540771 65.860901,216.933487 66.176285,221.736588 
	C66.318306,223.899490 67.703377,226.011581 68.674225,228.076294 
	C69.161209,229.111984 70.117043,229.922943 70.632713,230.950073 
	C73.630371,236.920944 76.464752,242.975937 79.569145,248.889755 
	C80.544846,250.748428 82.030296,252.429459 83.597549,253.842239 
	C84.201912,254.387024 86.031654,254.377045 86.659050,253.851288 
	C87.216927,253.383774 87.207253,251.743958 86.889893,250.811523 
	C85.401054,246.437164 83.719536,242.128403 82.119766,237.341492 
	C82.132713,236.886765 82.339874,236.723953 82.339874,236.723953 
z"/>
<path fill="#000000" opacity="1.000000" stroke="none" 
	d="
M450.350769,172.334351 
	C451.782013,168.467148 452.503876,164.658905 454.241241,161.390457 
	C456.787750,156.599762 461.950897,156.237442 466.400452,155.510788 
	C470.993958,162.250977 475.404388,168.963425 480.146088,175.433075 
	C480.899811,176.461517 483.143524,176.397919 484.698395,176.839188 
	C485.145294,176.327621 485.592163,175.816071 486.039062,175.304504 
	C488.104736,182.206421 490.392548,189.053223 492.125885,196.037613 
	C492.812378,198.803696 489.821594,200.607559 487.696472,198.720444 
	C483.530640,195.021255 478.935089,191.348328 476.103180,186.698685 
	C469.960480,176.613098 462.492462,173.373215 451.460999,177.918045 
	C447.608154,179.505371 444.524506,179.105042 440.550812,175.747910 
	C444.238068,174.545197 447.166748,173.589920 450.350769,172.334351 
z"/>
<path fill="#000000" opacity="1.000000" stroke="none" 
	d="
M199.028702,316.544189 
	C197.602707,317.682495 196.297363,318.555450 194.992004,319.428436 
	C194.562943,319.117554 194.133865,318.806702 193.704803,318.495819 
	C194.534653,317.049896 195.364517,315.603943 196.194366,314.158020 
	C197.179352,314.864990 198.164352,315.571930 199.028702,316.544189 
z"/>
<path fill="#000000" opacity="1.000000" stroke="none" 
	d="
M82.029572,236.968735 
	C81.832314,236.704498 81.738182,236.358307 81.644043,236.012100 
	C81.840103,236.168381 82.036163,236.324661 82.286049,236.602448 
	C82.339874,236.723953 82.132713,236.886765 82.029572,236.968735 
z"/>
<path fill="#000000" opacity="1.000000" stroke="none" 
	d="
M79.442856,233.023483 
	C79.444939,232.974960 79.440765,233.072006 79.442856,233.023483 
z"/>
<path fill="#231F20" opacity="1.000000" stroke="none" 
	d="
M252.731598,72.294350 
	C252.813049,75.907928 251.542953,77.178047 247.829880,75.677635 
	C244.621277,74.381081 241.078583,73.914185 237.863297,72.630402 
	C234.729736,71.379242 231.715210,69.731522 228.847198,67.939728 
	C225.595337,65.908142 222.479019,64.660706 218.533798,66.053833 
	C216.415680,66.801765 213.958847,66.875488 211.680847,66.756325 
	C210.656815,66.702759 209.696457,65.432014 208.707199,64.713562 
	C209.475159,63.735870 210.159790,62.671516 211.047333,61.818180 
	C211.471481,61.410362 212.324356,61.150837 212.908676,61.252350 
	C220.356812,62.546318 223.548981,57.040318 227.311783,52.396713 
	C219.533142,46.272072 208.818634,42.104881 200.970505,44.784378 
	C193.997574,47.165062 185.913254,46.640694 178.314362,46.695950 
	C174.275055,46.725319 171.854355,41.313366 174.661301,38.642452 
	C177.140930,36.282978 180.808960,35.020329 184.154678,33.853996 
	C184.807877,33.626286 186.390106,36.063492 186.865082,36.560837 
	C190.687317,34.865910 194.492706,32.971085 198.467789,31.551447 
	C199.555954,31.162828 201.752823,31.758957 202.412857,32.657970 
	C205.283752,36.568264 208.817749,35.354874 212.278046,34.296864 
	C216.671158,32.953636 220.533615,30.817945 225.054962,35.215958 
	C227.248901,37.350052 231.922897,36.891930 235.449585,37.712711 
	C238.022766,38.311577 240.518372,39.346287 243.115540,39.715729 
	C247.091599,40.281311 248.746628,41.788914 245.712646,46.303398 
	C251.196518,48.289440 256.243805,50.112068 261.286987,51.946007 
	C263.869720,52.885216 267.893860,52.191776 267.445251,56.750786 
	C267.183990,59.406116 261.212463,62.295464 257.904816,61.281540 
	C255.593781,60.573105 253.534317,59.075787 251.290756,58.094887 
	C250.662766,57.820324 249.780411,58.127537 249.014740,58.167881 
	C248.804703,58.628181 248.594666,59.088482 248.384628,59.548786 
	C250.506393,60.707237 252.871323,61.578644 254.677979,63.109077 
	C256.314423,64.495308 257.342010,66.600266 258.638062,68.388321 
	C257.022003,69.547218 255.405960,70.706123 253.347900,71.832520 
	C252.791580,71.770157 252.677246,71.740295 252.562897,71.710442 
	C252.619141,71.905083 252.675369,72.099716 252.731598,72.294350 
z"/>
<path fill="#231F20" opacity="1.000000" stroke="none" 
	d="
M201.552368,264.525757 
	C194.296570,259.713196 187.453033,254.458008 178.170303,258.132660 
	C177.278915,258.485504 175.902771,257.613800 174.751663,257.310547 
	C175.185043,256.160156 175.376770,254.209885 176.092377,253.993713 
	C179.784775,252.878204 183.968292,250.810028 187.318375,251.665878 
	C194.746033,253.563431 201.785904,256.988617 208.967621,259.832031 
	C210.644669,260.496033 212.344376,261.182861 213.867264,262.127441 
	C214.850082,262.737030 215.529846,263.835205 216.345428,264.714417 
	C215.347778,265.430481 214.191299,266.903870 213.379471,266.733643 
	C209.519760,265.924438 204.765396,270.339111 201.552368,264.525757 
z"/>
<path fill="#231F20" opacity="1.000000" stroke="none" 
	d="
M231.163361,274.921539 
	C228.642914,276.262024 218.501984,275.460144 216.814301,273.890900 
	C216.282822,273.396698 215.736343,271.961060 215.822067,271.904541 
	C217.068756,271.082336 218.421799,270.421417 220.108002,269.533020 
	C218.485825,266.352661 220.303146,264.537109 223.852951,265.150055 
	C228.767517,265.998657 233.620193,267.398590 238.341156,269.022491 
	C239.357895,269.372223 239.700333,271.682312 240.353363,273.089386 
	C239.029968,273.448761 237.723434,273.901978 236.378845,274.143280 
	C234.767944,274.432373 233.124603,274.540558 231.163361,274.921539 
z"/>
<path fill="#231F20" opacity="1.000000" stroke="none" 
	d="
M245.422852,272.413177 
	C245.787827,271.934692 246.078583,271.522614 246.279678,271.562500 
	C247.852631,271.874542 249.408386,272.273376 250.969437,272.645416 
	C250.594467,273.286041 250.039780,274.524475 249.872513,274.474213 
	C248.312775,274.005310 246.819580,273.315094 245.422852,272.413177 
z"/>
<path fill="#000000" opacity="1.000000" stroke="none" 
	d="
M252.811554,72.202339 
	C252.675369,72.099716 252.619141,71.905083 252.562897,71.710442 
	C252.677246,71.740295 252.791580,71.770157 252.978561,71.863068 
	C253.051208,71.926125 252.891525,72.110329 252.811554,72.202339 
z"/>
</svg>